<?xml version="1.0" standalone="no"?>
<!DOCTYPE svg PUBLIC "-//W3C//DTD SVG 20010904//EN"
 "http://www.w3.org/TR/2001/REC-SVG-20010904/DTD/svg10.dtd">
<svg version="1.0" xmlns="http://www.w3.org/2000/svg"
 width="3000.000000pt" height="3000.000000pt" viewBox="0 0 3000.000000 3000.000000"
 preserveAspectRatio="xMidYMid meet">
<metadata>
Created by potrace 1.11, written by Peter Selinger 2001-2013
</metadata>
<g transform="translate(0.000000,3000.000000) scale(0.100000,-0.100000)"
fill="#000000" stroke="none">
<path d="M14285 29989 c-3176 -152 -6221 -1308 -8695 -3299 -838 -675 -1605
-1442 -2280 -2280 -2001 -2486 -3148 -5521 -3300 -8730 -13 -277 -13 -1083 0
-1360 112 -2371 761 -4635 1918 -6690 931 -1654 2178 -3125 3662 -4320 2486
-2001 5521 -3148 8730 -3300 277 -13 1083 -13 1360 0 2371 112 4635 761 6690
1918 1654 931 3125 2178 4320 3662 2001 2486 3148 5521 3300 8730 13 277 13
1083 0 1360 -112 2371 -761 4635 -1918 6690 -931 1654 -2178 3125 -3662 4320
-2486 2001 -5521 3148 -8730 3300 -248 11 -1144 11 -1395 -1z m-783 -1542
c105 -52 217 -164 277 -277 84 -158 59 -315 -79 -498 -31 -43 -136 -203 -232
-357 -835 -1337 -1545 -2391 -2032 -3015 -144 -185 -194 -235 -263 -267 -121
-56 -240 -19 -371 114 -147 150 -198 257 -189 404 6 123 32 173 251 479 445
624 895 1289 1097 1622 363 600 1010 1556 1149 1699 60 61 117 100 180 120 48
16 156 3 212 -24z m6250 -8204 c72 -42 118 -143 118 -261 0 -163 -87 -564
-215 -987 -51 -170 -361 -1114 -401 -1220 -4 -11 67 53 159 142 589 573 1125
968 1713 1261 572 286 1079 414 1512 381 564 -43 985 -339 1304 -919 114 -206
300 -629 412 -933 484 -1316 553 -2693 205 -4092 -203 -813 -521 -1540 -974
-2225 -275 -416 -547 -749 -935 -1144 -118 -121 -208 -217 -200 -214 9 3 52
16 95 28 119 33 440 144 581 200 760 303 1447 737 2083 1314 302 275 293 263
1207 1476 912 1211 920 1222 1036 1352 149 166 331 288 454 304 119 14 267
-66 293 -161 23 -85 2 -226 -54 -364 -112 -273 -605 -1117 -988 -1691 -1008
-1509 -1957 -2377 -3132 -2865 -666 -276 -1338 -430 -2325 -531 -210 -21 -826
-30 -1041 -15 -521 37 -991 140 -1404 307 -158 64 -444 206 -450 224 -3 8 -33
35 -66 60 -79 58 -215 203 -257 273 -102 170 -137 312 -129 526 9 243 70 423
182 540 177 185 422 133 800 -170 265 -212 554 -358 830 -419 229 -50 462 -48
703 6 132 29 472 146 624 213 390 174 768 500 1075 929 269 376 546 984 718
1582 237 822 375 1709 375 2422 0 922 -191 1649 -591 2253 -237 356 -399 475
-686 505 -457 48 -1127 -272 -1959 -935 -448 -358 -809 -718 -1085 -1085 -94
-125 -209 -299 -258 -391 -60 -113 -263 -676 -690 -1909 l-160 -465 -231
-1135 c-447 -2197 -832 -4052 -1019 -4915 -27 -126 -108 -522 -180 -880 -551
-2752 -964 -4330 -1293 -4935 -172 -316 -363 -454 -571 -410 -182 37 -291 229
-326 570 -10 101 9 251 89 694 196 1081 712 3361 1305 5761 771 3121 1581
6626 2070 8950 25 121 48 226 50 233 10 28 -14 8 -81 -71 -375 -434 -916
-1191 -1439 -2012 -60 -93 -332 -505 -605 -915 -414 -622 -502 -761 -534 -840
-384 -945 -923 -1954 -1449 -2715 -267 -387 -640 -865 -860 -1105 -352 -384
-772 -680 -1207 -853 -336 -134 -637 -192 -980 -191 -182 0 -230 3 -317 22
-270 58 -482 170 -666 350 -270 265 -479 699 -543 1123 -33 225 -29 792 10
1232 6 75 9 137 6 137 -3 0 -21 -26 -39 -57 -127 -215 -382 -575 -541 -763
-39 -47 -117 -141 -173 -210 -689 -848 -1413 -1398 -2231 -1694 -332 -120
-644 -171 -896 -147 -385 38 -694 200 -962 505 -166 189 -370 539 -436 746
-173 544 -141 1373 98 2570 200 1001 506 2094 1011 3605 125 374 226 681 224
683 -2 3 -1896 -3090 -1973 -3224 -56 -98 -122 -168 -187 -200 -47 -22 -65
-26 -123 -22 -83 4 -152 36 -240 110 -167 142 -225 313 -173 519 34 135 274
608 549 1079 268 460 505 831 1106 1730 804 1202 1109 1704 1464 2415 153 307
209 391 312 468 128 97 257 137 435 137 233 0 367 -57 432 -184 24 -44 28 -66
31 -161 3 -106 1 -118 -53 -335 -138 -553 -339 -1222 -683 -2270 -199 -606
-535 -1674 -716 -2275 -354 -1180 -523 -1929 -603 -2670 -24 -230 -24 -743 0
-910 79 -529 277 -843 616 -974 540 -208 1059 -94 1632 360 134 106 455 427
593 594 655 789 1331 2005 1851 3329 228 582 455 1265 641 1934 370 1335 860
3082 881 3140 54 153 163 281 298 347 108 53 182 69 320 70 97 0 134 -4 192
-23 136 -42 213 -133 233 -273 42 -289 -273 -1626 -850 -3609 -242 -833 -272
-939 -375 -1313 -391 -1434 -629 -2575 -711 -3417 -21 -215 -24 -589 -6 -715
59 -411 232 -668 510 -759 110 -36 180 -46 316 -46 350 0 731 147 1040 399
107 88 281 272 373 396 96 128 2177 3590 2323 3865 980 1839 2238 3648 3608
5188 283 318 571 544 828 649 131 54 271 60 346 16z"/>
</g>
</svg>
